<?xml version="1.0" encoding="UTF-8"?>
<svg width="27px" height="27px" viewBox="0 0 27 27" version="1.1" xmlns="http://www.w3.org/2000/svg" xmlns:xlink="http://www.w3.org/1999/xlink">
    <!-- Generator: Sketch 52.6 (67491) - http://www.bohemiancoding.com/sketch -->
    <title>Brain white</title>
    <desc>Created with Sketch.</desc>
    <g id="Page-1" stroke="none" stroke-width="1" fill="none" fill-rule="evenodd">
        <g id="Home-New" transform="translate(-1924.000000, -1959.000000)" fill="#FFFFFF">
            <g id="Brain-white" transform="translate(1924.000000, 1959.000000)">
                <g id="L-Brain">
                    <path d="M4.76934913,24.0110847 L5.09113361,23.1974028 C4.91781696,23.1312835 0.896058018,21.5346017 2.03003963,17.2478915 L2.07833075,17.0653347 L1.97534096,16.906096 C1.84593953,16.7019085 -1.16186231,11.8699824 3.32186599,8.79443693 L2.81332462,8.07893693 C-1.86810031,11.2902494 0.581618795,16.2356983 1.12657385,17.203096 C-0.050697855,22.1210847 4.72012033,23.9917551 4.76934913,24.0110847" id="Fill-21"></path>
                    <path d="M10.2852257,7.34964545 C11.1627487,7.34964545 11.8027232,7.14668523 11.8188202,7.14238977 C12.0510552,7.06645227 12.1768621,6.81992386 12.0996588,6.59073068 C12.0215179,6.36307159 11.7711542,6.23911705 11.5386067,6.31474773 C11.4168631,6.35463409 8.64567211,7.20881591 7.12817467,4.76823068 C7.00049234,4.56327614 6.72731154,4.49731023 6.51883146,4.6234125 C6.30894484,4.7482875 6.24252503,5.01690682 6.37036364,5.22324205 C7.45933606,6.97471364 9.091857,7.34964545 10.2852257,7.34964545" id="Fill-23"></path>
                    <path d="M6.87677957,14.10615 C7.65146905,14.10615 8.38755689,13.7385818 8.84343126,13.123258 C8.98799203,12.927508 8.94470194,12.6552068 8.74653647,12.5134568 C8.54774586,12.3720136 8.26987661,12.4143545 8.12437814,12.6099511 C7.83541287,13.0003773 7.36844249,13.2349398 6.87677957,13.2349398 C6.0259808,13.2349398 5.33552727,12.5551841 5.33552727,11.7203318 C5.33552727,11.1625364 5.64590317,10.6512239 6.14678672,10.3859795 C6.36229949,10.2724568 6.44340981,10.0067523 6.32666721,9.79566136 C6.21101859,9.58349659 5.94096343,9.50418409 5.72498182,9.61878068 C4.93653953,10.0359 4.4458143,10.8405307 4.4458143,11.7203318 C4.4458143,13.0358148 5.53634954,14.10615 6.87677957,14.10615" id="Fill-25"></path>
                    <path d="M11.0538202,20.7867938 C11.2883994,20.7867938 11.4842206,20.6060778 11.4959418,20.3732028 C11.5090695,20.1323506 11.3199683,19.9283165 11.0756997,19.9168108 C7.20334627,19.7242824 7.19162513,16.9739642 7.19225026,16.8573733 C7.1961573,16.6163676 7.00049234,16.4183165 6.75716139,16.4143278 L6.74809704,16.4143278 C6.50773544,16.4143278 6.31097651,16.603021 6.30488151,16.8397313 C6.30488151,16.8767028 6.27721961,20.5519244 11.0300654,20.7867938 L11.0538202,20.7867938 Z" id="Fill-27"></path>
                    <path d="M11.0538202,18.1879824 C11.2687079,18.1879824 11.4574964,18.0347267 11.4923473,17.8187267 C11.7960031,15.8922153 10.4119704,14.8023972 9.63821859,14.4954256 C9.40864045,14.4062949 9.15124413,14.513221 9.05935036,14.7362778 C8.968238,14.9597949 9.0771665,15.2124597 9.30268131,15.3035847 C9.37207048,15.3308915 10.8845669,15.9718347 10.6137303,17.684954 C10.5762227,17.9227381 10.7431318,18.1453347 10.9844311,18.1821528 C11.0081859,18.1859881 11.0310031,18.1879824 11.0538202,18.1879824" id="Fill-29"></path>
                    <path d="M10.6371726,16.4552267 C12.8119918,16.3367949 13.712332,14.7052892 13.7489019,14.6353347 L12.9642104,14.2266528 C12.9357671,14.2788119 12.247189,15.4936585 10.5868498,15.5852437 L10.6371726,16.4552267 Z" id="Fill-31"></path>
                    <path d="M9.3928716,26.9110227 C10.8855202,26.9110227 12.5200728,26.3601307 13.7103159,24.8172955 L13.801272,24.7005511 L13.801272,1.48975568 L13.6520228,1.35951136 C12.4272414,0.291170455 11.1882383,-0.151107955 9.97236496,0.0454090909 C8.39266731,0.301755682 7.33573269,1.56722727 6.93111879,2.14220455 C6.80640582,2.11903977 6.68106772,2.1043125 6.55338539,2.09710227 C4.85444464,1.99846023 3.17472656,3.31731818 2.57007181,5.23784659 C2.23484709,6.30373295 2.26235271,7.41426136 2.64915046,8.36539773 C3.04907589,9.34828977 3.78110041,10.044767 4.7130095,10.3264261 C5.6422618,10.608392 6.64809224,10.4399489 7.54249367,9.8499375 C8.40938948,9.27940909 9.07108713,8.37813068 9.40568672,7.31239773 L8.5578573,7.05482386 C8.28170715,7.93032955 7.7453476,8.66592614 7.04817395,9.12538636 C6.37897477,9.56674432 5.64288693,9.69698864 4.97415659,9.49402841 C4.30542625,9.29106818 3.77313003,8.77576705 3.47447528,8.04170455 C3.16269285,7.27573295 3.14284505,6.37230682 3.41915148,5.49557386 C3.90487569,3.95289205 5.20889203,2.892375 6.49962441,2.96723864 C6.6709094,2.97690341 6.840319,3.007125 7.00050797,3.0560625 L7.34276537,3.16007386 L7.51795741,2.85494318 C7.52780317,2.83960227 8.52597579,1.16053977 10.1209891,0.905420455 C11.0142965,0.762596591 11.9521443,1.0918125 12.9128093,1.88478409 L12.9128093,24.4043182 C11.5287766,26.0933523 9.47101256,26.2622557 7.98695945,25.8466705 C6.50571941,25.4329261 5.44315863,24.4365341 5.3431382,23.3681932 C5.22655189,22.1309489 6.34943749,20.868392 8.5042526,19.815392 L8.10870306,19.0348466 C4.72676231,20.6878295 4.3698144,22.5097159 4.4588951,23.4478125 C4.59345383,24.8949205 5.88465506,26.1651477 7.74331593,26.6855114 C8.24920051,26.8264943 8.80994004,26.9110227 9.3928716,26.9110227" id="Fill-33"></path>
                    <path d="M1.46789356,18.1879824 C1.66199571,18.1879824 1.84000082,18.0617267 1.89423064,17.8695051 C1.96658917,17.6197551 2.26930725,16.8866131 2.71955546,16.760204 C3.0450907,16.669079 3.42985679,16.9343233 3.6960049,17.1722608 C3.87697937,17.3350278 4.15797426,17.3216812 4.32222656,17.1429597 C4.48741655,16.9651585 4.47475771,16.689329 4.29378325,16.527329 C3.6614666,15.9629369 3.04899775,15.7599767 2.47106721,15.923204 C1.46789356,16.2077778 1.08000184,17.4907381 1.03952482,17.6361699 C0.973417569,17.8675108 1.11297732,18.1083631 1.34818161,18.1724881 C1.38772094,18.1821528 1.42835424,18.1879824 1.46789356,18.1879824" id="Fill-35"></path>
                    <path d="M13.1522488,12.2773142 C13.2819628,12.2773142 13.3640108,12.2730187 13.381827,12.2720983 C13.6271896,12.2575244 13.814259,12.0510358 13.8001937,11.8106437 C13.7855032,11.5704051 13.5720221,11.3872347 13.3302539,11.4008881 C12.7268494,11.433871 11.0766686,11.3280187 10.6887769,10.4525131 C10.5918821,10.2306835 10.3297973,10.1295869 10.1031886,10.225621 C9.87861144,10.3224222 9.77577794,10.5783085 9.87361042,10.7992176 C10.4749832,12.1565812 12.4667963,12.2773142 13.1522488,12.2773142" id="Fill-37"></path>
                    <path d="M12.1164279,26.1361841 C12.2183237,26.1361841 12.3192818,26.1009 12.4044555,26.0310989 C13.600481,25.0308716 13.3194861,24.1490761 13.142575,23.8169455 C12.6527874,22.8943432 11.2210888,22.5008489 9.7392236,22.8805364 C9.50151879,22.9428205 9.35898968,23.1796841 9.42040848,23.4128659 C9.48167099,23.6458943 9.72500194,23.7858034 9.96270674,23.7244398 C11.1201306,23.4263659 12.1064258,23.7497523 12.3558518,24.2187239 C12.5813666,24.6461216 12.1225229,25.1219966 11.8285566,25.3688318 C11.6414871,25.5240818 11.61867,25.8002182 11.7782338,25.9824682 C11.8660642,26.0834114 11.9907772,26.1361841 12.1164279,26.1361841" id="Fill-39"></path>
                </g>
                <g id="R-Brain" transform="translate(20.000000, 13.500000) scale(-1, 1) translate(-20.000000, -13.500000) translate(13.000000, 0.000000)">
                    <path d="M4.76934913,24.0110847 L5.09113361,23.1974028 C4.91781696,23.1312835 0.896058018,21.5346017 2.03003963,17.2478915 L2.07833075,17.0653347 L1.97534096,16.906096 C1.84593953,16.7019085 -1.16186231,11.8699824 3.32186599,8.79443693 L2.81332462,8.07893693 C-1.86810031,11.2902494 0.581618795,16.2356983 1.12657385,17.203096 C-0.050697855,22.1210847 4.72012033,23.9917551 4.76934913,24.0110847" id="Fill-21"></path>
                    <path d="M10.2852257,7.34964545 C11.1627487,7.34964545 11.8027232,7.14668523 11.8188202,7.14238977 C12.0510552,7.06645227 12.1768621,6.81992386 12.0996588,6.59073068 C12.0215179,6.36307159 11.7711542,6.23911705 11.5386067,6.31474773 C11.4168631,6.35463409 8.64567211,7.20881591 7.12817467,4.76823068 C7.00049234,4.56327614 6.72731154,4.49731023 6.51883146,4.6234125 C6.30894484,4.7482875 6.24252503,5.01690682 6.37036364,5.22324205 C7.45933606,6.97471364 9.091857,7.34964545 10.2852257,7.34964545" id="Fill-23"></path>
                    <path d="M6.87677957,14.10615 C7.65146905,14.10615 8.38755689,13.7385818 8.84343126,13.123258 C8.98799203,12.927508 8.94470194,12.6552068 8.74653647,12.5134568 C8.54774586,12.3720136 8.26987661,12.4143545 8.12437814,12.6099511 C7.83541287,13.0003773 7.36844249,13.2349398 6.87677957,13.2349398 C6.0259808,13.2349398 5.33552727,12.5551841 5.33552727,11.7203318 C5.33552727,11.1625364 5.64590317,10.6512239 6.14678672,10.3859795 C6.36229949,10.2724568 6.44340981,10.0067523 6.32666721,9.79566136 C6.21101859,9.58349659 5.94096343,9.50418409 5.72498182,9.61878068 C4.93653953,10.0359 4.4458143,10.8405307 4.4458143,11.7203318 C4.4458143,13.0358148 5.53634954,14.10615 6.87677957,14.10615" id="Fill-25"></path>
                    <path d="M11.0538202,20.7867938 C11.2883994,20.7867938 11.4842206,20.6060778 11.4959418,20.3732028 C11.5090695,20.1323506 11.3199683,19.9283165 11.0756997,19.9168108 C7.20334627,19.7242824 7.19162513,16.9739642 7.19225026,16.8573733 C7.1961573,16.6163676 7.00049234,16.4183165 6.75716139,16.4143278 L6.74809704,16.4143278 C6.50773544,16.4143278 6.31097651,16.603021 6.30488151,16.8397313 C6.30488151,16.8767028 6.27721961,20.5519244 11.0300654,20.7867938 L11.0538202,20.7867938 Z" id="Fill-27"></path>
                    <path d="M11.0538202,18.1879824 C11.2687079,18.1879824 11.4574964,18.0347267 11.4923473,17.8187267 C11.7960031,15.8922153 10.4119704,14.8023972 9.63821859,14.4954256 C9.40864045,14.4062949 9.15124413,14.513221 9.05935036,14.7362778 C8.968238,14.9597949 9.0771665,15.2124597 9.30268131,15.3035847 C9.37207048,15.3308915 10.8845669,15.9718347 10.6137303,17.684954 C10.5762227,17.9227381 10.7431318,18.1453347 10.9844311,18.1821528 C11.0081859,18.1859881 11.0310031,18.1879824 11.0538202,18.1879824" id="Fill-29"></path>
                    <path d="M10.6371726,16.4552267 C12.8119918,16.3367949 13.712332,14.7052892 13.7489019,14.6353347 L12.9642104,14.2266528 C12.9357671,14.2788119 12.247189,15.4936585 10.5868498,15.5852437 L10.6371726,16.4552267 Z" id="Fill-31"></path>
                    <path d="M9.3928716,26.9110227 C10.8855202,26.9110227 12.5200728,26.3601307 13.7103159,24.8172955 L13.801272,24.7005511 L13.801272,1.48975568 L13.6520228,1.35951136 C12.4272414,0.291170455 11.1882383,-0.151107955 9.97236496,0.0454090909 C8.39266731,0.301755682 7.33573269,1.56722727 6.93111879,2.14220455 C6.80640582,2.11903977 6.68106772,2.1043125 6.55338539,2.09710227 C4.85444464,1.99846023 3.17472656,3.31731818 2.57007181,5.23784659 C2.23484709,6.30373295 2.26235271,7.41426136 2.64915046,8.36539773 C3.04907589,9.34828977 3.78110041,10.044767 4.7130095,10.3264261 C5.6422618,10.608392 6.64809224,10.4399489 7.54249367,9.8499375 C8.40938948,9.27940909 9.07108713,8.37813068 9.40568672,7.31239773 L8.5578573,7.05482386 C8.28170715,7.93032955 7.7453476,8.66592614 7.04817395,9.12538636 C6.37897477,9.56674432 5.64288693,9.69698864 4.97415659,9.49402841 C4.30542625,9.29106818 3.77313003,8.77576705 3.47447528,8.04170455 C3.16269285,7.27573295 3.14284505,6.37230682 3.41915148,5.49557386 C3.90487569,3.95289205 5.20889203,2.892375 6.49962441,2.96723864 C6.6709094,2.97690341 6.840319,3.007125 7.00050797,3.0560625 L7.34276537,3.16007386 L7.51795741,2.85494318 C7.52780317,2.83960227 8.52597579,1.16053977 10.1209891,0.905420455 C11.0142965,0.762596591 11.9521443,1.0918125 12.9128093,1.88478409 L12.9128093,24.4043182 C11.5287766,26.0933523 9.47101256,26.2622557 7.98695945,25.8466705 C6.50571941,25.4329261 5.44315863,24.4365341 5.3431382,23.3681932 C5.22655189,22.1309489 6.34943749,20.868392 8.5042526,19.815392 L8.10870306,19.0348466 C4.72676231,20.6878295 4.3698144,22.5097159 4.4588951,23.4478125 C4.59345383,24.8949205 5.88465506,26.1651477 7.74331593,26.6855114 C8.24920051,26.8264943 8.80994004,26.9110227 9.3928716,26.9110227" id="Fill-33"></path>
                    <path d="M1.46789356,18.1879824 C1.66199571,18.1879824 1.84000082,18.0617267 1.89423064,17.8695051 C1.96658917,17.6197551 2.26930725,16.8866131 2.71955546,16.760204 C3.0450907,16.669079 3.42985679,16.9343233 3.6960049,17.1722608 C3.87697937,17.3350278 4.15797426,17.3216812 4.32222656,17.1429597 C4.48741655,16.9651585 4.47475771,16.689329 4.29378325,16.527329 C3.6614666,15.9629369 3.04899775,15.7599767 2.47106721,15.923204 C1.46789356,16.2077778 1.08000184,17.4907381 1.03952482,17.6361699 C0.973417569,17.8675108 1.11297732,18.1083631 1.34818161,18.1724881 C1.38772094,18.1821528 1.42835424,18.1879824 1.46789356,18.1879824" id="Fill-35"></path>
                    <path d="M13.1522488,12.2773142 C13.2819628,12.2773142 13.3640108,12.2730187 13.381827,12.2720983 C13.6271896,12.2575244 13.814259,12.0510358 13.8001937,11.8106437 C13.7855032,11.5704051 13.5720221,11.3872347 13.3302539,11.4008881 C12.7268494,11.433871 11.0766686,11.3280187 10.6887769,10.4525131 C10.5918821,10.2306835 10.3297973,10.1295869 10.1031886,10.225621 C9.87861144,10.3224222 9.77577794,10.5783085 9.87361042,10.7992176 C10.4749832,12.1565812 12.4667963,12.2773142 13.1522488,12.2773142" id="Fill-37"></path>
                    <path d="M12.1164279,26.1361841 C12.2183237,26.1361841 12.3192818,26.1009 12.4044555,26.0310989 C13.600481,25.0308716 13.3194861,24.1490761 13.142575,23.8169455 C12.6527874,22.8943432 11.2210888,22.5008489 9.7392236,22.8805364 C9.50151879,22.9428205 9.35898968,23.1796841 9.42040848,23.4128659 C9.48167099,23.6458943 9.72500194,23.7858034 9.96270674,23.7244398 C11.1201306,23.4263659 12.1064258,23.7497523 12.3558518,24.2187239 C12.5813666,24.6461216 12.1225229,25.1219966 11.8285566,25.3688318 C11.6414871,25.5240818 11.61867,25.8002182 11.7782338,25.9824682 C11.8660642,26.0834114 11.9907772,26.1361841 12.1164279,26.1361841" id="Fill-39"></path>
                </g>
            </g>
        </g>
    </g>
</svg>