<?xml version="1.0" encoding="UTF-8"?>
<svg width="237px" height="39px" viewBox="0 0 237 39" version="1.1" xmlns="http://www.w3.org/2000/svg" xmlns:xlink="http://www.w3.org/1999/xlink">
    <!-- Generator: Sketch 48 (47235) - http://www.bohemiancoding.com/sketch -->
    <title>logo</title>
    <desc>Created with Sketch.</desc>
    <defs>
        <polygon id="path-1" points="0 38.4160837 236.755516 38.4160837 236.755516 0.545880157 0 0.545880157"></polygon>
    </defs>
    <g id="Homepage" stroke="none" stroke-width="1" fill="none" fill-rule="evenodd" transform="translate(-742.000000, -33.000000)">
        <g id="Menu">
            <g id="logo" transform="translate(742.000000, 33.000000)">
                <polygon id="Fill-1" fill="#464646" points="53 6 56.7087732 6 56.7087732 17.1379327 61.2893546 17.1379327 61.2893546 6 65 6 65 32 61.2893546 32 61.2893546 20.4239707 56.7087732 20.4239707 56.7087732 32 53 32"></polygon>
                <path d="M77.017886,13.4858741 L76.9481305,13.4858741 L75.2107998,22.9077717 L78.7540244,22.9077717 L77.017886,13.4858741 Z M75.5238055,6 L78.4767907,6 L84,32 L80.4567754,32 L79.4140192,26.4125446 L74.5853845,26.4125446 L73.5420322,32 L70,32 L75.5238055,6 Z" id="Fill-2" fill="#464646"></path>
                <g id="Group-18">
                    <path d="M94.9418882,28.6026951 L96.5410145,28.6026951 C97.2913066,28.6026951 97.8800645,28.493643 98.3047934,28.2786369 C98.7264039,28.0617719 99.048225,27.761259 99.2677618,27.3746197 C99.4841803,26.9898392 99.617025,26.5325639 99.6669197,26.0040329 C99.7149434,25.4748824 99.7392671,24.895543 99.7392671,24.269113 C99.7392671,23.6197573 99.7024697,23.0552887 99.6319934,22.5738484 C99.5571513,22.0930278 99.4055961,21.6884197 99.1748329,21.3643614 C98.9453171,21.0390639 98.6241197,20.7918378 98.2124882,20.6239224 C97.8008566,20.4566265 97.2551329,20.3717394 96.5778118,20.3717394 L94.9418882,20.3717394 L94.9418882,28.6026951 Z M94.9418882,17.1218626 L96.6146092,17.1218626 C97.8495039,17.1218626 98.6796276,16.8163928 99.1043566,16.2023551 C99.5259671,15.588937 99.7392671,14.6923551 99.7392671,13.5113704 C99.7392671,12.357029 99.5028908,11.4914279 99.0307618,10.9139474 C98.5586329,10.3346081 97.7048092,10.0464875 96.4699145,10.0464875 L94.9418882,10.0464875 L94.9418882,17.1218626 Z M91.2353329,6.58036533 L96.6501592,6.58036533 C97.839525,6.58036533 98.8498934,6.76129269 99.6843829,7.1225278 C100.520743,7.48376291 101.205549,7.96520318 101.736928,8.56746824 C102.270178,9.16787445 102.651872,9.85936396 102.882636,10.6419368 C103.112151,11.4245096 103.228157,12.2368238 103.228157,13.0794992 L103.228157,14.0169756 C103.228157,14.7165201 103.172649,15.3057732 103.06288,15.7859743 C102.954983,16.2692734 102.791578,16.6893719 102.574536,17.0499874 C102.355622,17.4106029 102.088686,17.7303238 101.775596,18.0072914 C101.459388,18.2836393 101.09578,18.5438773 100.684149,18.783668 C101.556059,19.1919938 102.197207,19.800455 102.609462,20.6059536 C103.02047,21.4126913 103.228157,22.4902005 103.228157,23.8378615 L103.228157,25.2815627 C103.228157,27.5431547 102.676196,29.277455 101.57477,30.4788871 C100.472096,31.6834172 98.7095645,32.2850626 96.2865513,32.2850626 L91.2353329,32.2850626 L91.2353329,6.58036533 Z" id="Fill-3" fill="#464646"></path>
                    <mask id="mask-2" fill="white">
                        <use xlink:href="#path-1"></use>
                    </mask>
                    <g id="Clip-6"></g>
                    <polygon id="Fill-5" fill="#464646" mask="url(#mask-2)" points="110.822447 32.2850007 114.53025 32.2850007 114.53025 6.58092298 110.822447 6.58092298"></polygon>
                    <polygon id="Fill-7" fill="#464646" mask="url(#mask-2)" points="124.558406 10.0466733 120.271824 10.0466733 120.271824 6.58055121 132.551543 6.58055121 132.551543 10.0466733 128.264961 10.0466733 128.264961 32.2852485 124.558406 32.2852485"></polygon>
                    <path d="M147.523831,23.9940043 L144.836376,10.9381124 L144.758415,10.9381124 L141.996118,23.9940043 L147.523831,23.9940043 Z M143.775489,7.0618056 C143.850954,6.81272067 143.988789,6.68569975 144.194604,6.68569975 L145.441973,6.68569975 C145.66837,6.68569975 145.808699,6.81272067 145.857347,7.0618056 L151.161157,31.8953253 C151.209804,32.1468886 151.096918,32.2720507 150.820002,32.2720507 L149.608183,32.2720507 C149.381786,32.2720507 149.24021,32.1468886 149.190315,31.8953253 L147.904902,25.763003 L141.616918,25.763003 L140.329633,31.8953253 C140.275997,32.1468886 140.150636,32.2720507 139.948562,32.2720507 L138.73612,32.2720507 C138.61076,32.2720507 138.509723,32.2416896 138.435504,32.178489 C138.358791,32.1159079 138.334468,32.0223462 138.358791,31.8953253 L143.775489,7.0618056 Z" id="Fill-8" fill="#464646" mask="url(#mask-2)"></path>
                    <path d="M158.43344,29.0740976 C158.355479,28.7983693 158.28625,28.4972368 158.222634,28.1707001 C158.161513,27.8460222 158.110371,27.3497112 158.07295,26.6854847 C158.032411,26.0206386 158.003721,25.1240568 157.97815,23.9938804 C157.953203,22.8655628 157.938858,21.3605198 157.938858,19.4787513 C157.938858,17.5982221 157.953203,16.0925594 157.97815,14.9642419 C158.003721,13.8353047 158.032411,12.9387229 158.07295,12.2738768 C158.110371,11.6090307 158.161513,11.1151981 158.222634,10.7880418 C158.28625,10.4615051 158.355479,10.1609922 158.43344,9.8840246 C159.189969,7.55179655 160.86955,6.38568253 163.469066,6.38568253 C164.984619,6.38568253 166.196437,6.83676171 167.106392,7.73953967 C168.013853,8.64293725 168.557082,9.92244069 168.735456,11.5774304 C168.759779,11.8537783 168.683066,12.0167369 168.507187,12.066306 L167.370834,12.2918456 C167.092048,12.3934623 166.954213,12.2918456 166.954213,11.9925719 C166.803282,10.7880418 166.450277,9.85985965 165.893327,9.20740584 C165.337624,8.55557164 164.541179,8.22903493 163.508358,8.22903493 C161.890521,8.22903493 160.829634,8.98062702 160.325074,10.48567 C160.250856,10.6870447 160.192229,10.9249765 160.156056,11.2019441 C160.116763,11.4789117 160.079342,11.9293713 160.042545,12.5558013 C160.005124,13.1834705 159.979553,14.0366793 159.964584,15.1148081 C159.952734,16.1935565 159.947745,17.6484108 159.947745,19.4787513 C159.947745,21.310331 159.952734,22.7658049 159.964584,23.8445533 C159.979553,24.9226821 160.005124,25.775891 160.042545,26.4017014 C160.079342,27.0312294 160.116763,27.481689 160.156056,27.7574173 C160.192229,28.0337653 160.250856,28.2723168 160.325074,28.4718326 C160.829634,29.9768756 161.890521,30.7303265 163.508358,30.7303265 C164.541179,30.7303265 165.337624,30.4044094 165.893327,29.751336 C166.450277,29.0995018 166.803282,28.1583078 166.954213,26.9296127 C166.954213,26.654504 167.092048,26.5658991 167.370834,26.6675159 L168.507187,26.8924358 C168.708637,26.9172204 168.78535,27.0684063 168.735456,27.3447543 C168.557082,29.0239089 168.013853,30.3164242 167.106392,31.2192022 C166.196437,32.1225998 164.984619,32.5730593 163.469066,32.5730593 C160.86955,32.5730593 159.189969,31.4075649 158.43344,29.0740976" id="Fill-9" fill="#464646" mask="url(#mask-2)"></path>
                    <path d="M179.870152,32.2722986 C179.618184,32.2722986 179.490328,32.1465169 179.490328,31.8955731 L179.490328,8.7554592 C179.490328,8.60551255 179.414863,8.52991961 179.26206,8.52991961 L174.718521,8.52991961 C174.466552,8.52991961 174.339944,8.40413792 174.339944,8.15319415 L174.339944,7.06205345 C174.339944,6.8123489 174.466552,6.6859476 174.718521,6.6859476 L186.232355,6.6859476 C186.485571,6.6859476 186.610307,6.8123489 186.610307,7.06205345 L186.610307,8.15319415 C186.610307,8.40413792 186.485571,8.52991961 186.232355,8.52991961 L181.686321,8.52991961 C181.536636,8.52991961 181.459923,8.60551255 181.459923,8.7554592 L181.459923,31.8955731 C181.459923,32.1465169 181.334563,32.2722986 181.081971,32.2722986 L179.870152,32.2722986 Z" id="Fill-10" fill="#464646" mask="url(#mask-2)"></path>
                    <path d="M194.034644,7.06205345 C194.034644,6.8123489 194.158757,6.6859476 194.411973,6.6859476 L195.624415,6.6859476 C195.875136,6.6859476 196.002992,6.8123489 196.002992,7.06205345 L196.002992,31.8955731 C196.002992,32.1465169 195.875136,32.2722986 195.624415,32.2722986 L194.411973,32.2722986 C194.158757,32.2722986 194.034644,32.1465169 194.034644,31.8955731 L194.034644,7.06205345 Z" id="Fill-11" fill="#464646" mask="url(#mask-2)"></path>
                    <path d="M210.585414,30.7302026 C212.27747,30.7302026 213.375154,29.9767517 213.881586,28.4717087 C213.955804,28.2467887 214.018172,27.9964645 214.069314,27.7201166 C214.119209,27.443149 214.165362,27.0050817 214.202159,26.4021971 C214.238333,25.8011712 214.262657,24.9535389 214.278872,23.8623982 C214.289475,22.7718771 214.295712,21.3102071 214.295712,19.4786274 C214.295712,17.6482869 214.289475,16.1872365 214.278872,15.0960958 C214.262657,14.0043355 214.238333,13.1579424 214.202159,12.5556773 C214.165362,11.9540319 214.119209,11.5159646 214.069314,11.2389971 C214.018172,10.9638883 213.955804,10.7123249 213.881586,10.4861657 C213.62837,9.70978907 213.217986,9.13850473 212.649186,8.77479117 C212.081009,8.41231683 211.393086,8.22891101 210.585414,8.22891101 C208.893359,8.22891101 207.795675,8.9805031 207.289243,10.4861657 C207.215025,10.7123249 207.157646,10.9638883 207.118354,11.2389971 C207.08218,11.5159646 207.042888,11.9540319 207.005467,12.5556773 C206.967422,13.1579424 206.940604,14.0043355 206.930001,15.0960958 C206.915033,16.1872365 206.910043,17.6482869 206.910043,19.4786274 C206.910043,21.3102071 206.915033,22.7718771 206.930001,23.8623982 C206.940604,24.9535389 206.967422,25.8011712 207.005467,26.4021971 C207.042888,27.0050817 207.08218,27.443149 207.118354,27.7201166 C207.157646,27.9964645 207.215025,28.2467887 207.289243,28.4717087 C207.819999,29.9767517 208.917683,30.7302026 210.585414,30.7302026 M210.585414,32.573555 C207.883614,32.573555 206.152891,31.407441 205.395114,29.0739737 C205.295325,28.7982454 205.212375,28.4896775 205.148759,28.1532269 C205.085767,27.8136783 205.035872,27.3192261 204.999075,26.667392 C204.959159,26.0136989 204.934212,25.1239328 204.922362,23.9937564 C204.908641,22.8654389 204.90178,21.3603959 204.90178,19.4786274 C204.90178,17.5987177 204.908641,16.0924355 204.922362,14.9641179 C204.934212,13.8351808 204.959159,12.9454147 204.999075,12.2917217 C205.035872,11.6411267 205.085767,11.1441961 205.148759,10.8058867 C205.212375,10.4681969 205.295325,10.1608683 205.395114,9.88390068 C206.152891,7.55167263 207.883614,6.38555861 210.585414,6.38555861 C213.287214,6.38555861 215.016067,7.55167263 215.771972,9.88390068 C215.874257,10.1608683 215.955959,10.4681969 216.019575,10.8058867 C216.082567,11.1441961 216.133709,11.6411267 216.171754,12.2917217 C216.209799,12.9454147 216.234122,13.8351808 216.245972,14.9641179 C216.258446,16.0924355 216.266554,17.5987177 216.266554,19.4786274 C216.266554,21.3603959 216.258446,22.8654389 216.245972,23.9937564 C216.234122,25.1239328 216.209799,26.0136989 216.171754,26.667392 C216.133709,27.3192261 216.082567,27.8136783 216.019575,28.1532269 C215.955959,28.4896775 215.874257,28.7982454 215.771972,29.0739737 C215.016067,31.407441 213.287214,32.573555 210.585414,32.573555" id="Fill-12" fill="#464646" mask="url(#mask-2)"></path>
                    <path d="M225.166465,7.06205345 C225.166465,6.8123489 225.294321,6.6859476 225.550031,6.6859476 L227.097392,6.6859476 C227.398007,6.6859476 227.598834,6.8123489 227.700494,7.06205345 L234.787418,28.0211252 L234.900305,28.0211252 L234.900305,7.06205345 C234.900305,6.8123489 235.027536,6.6859476 235.285742,6.6859476 L236.368457,6.6859476 C236.625415,6.6859476 236.755765,6.8123489 236.755765,7.06205345 L236.755765,31.8955731 C236.755765,32.1465169 236.625415,32.2722986 236.368457,32.2722986 L234.900305,32.2722986 C234.598442,32.2722986 234.397615,32.1465169 234.296578,31.8955731 L227.134813,10.9377406 L227.023173,10.9377406 L227.023173,31.8955731 C227.023173,32.1465169 226.891576,32.2722986 226.636489,32.2722986 L225.550031,32.2722986 C225.294321,32.2722986 225.166465,32.1465169 225.166465,31.8955731 L225.166465,7.06205345 Z" id="Fill-13" fill="#464646" mask="url(#mask-2)"></path>
                    <polygon id="Fill-14" fill="#464646" mask="url(#mask-2)" points="13.5507868 38.4160837 15.2434658 38.4160837 15.2434658 0.545880157 13.5507868 0.545880157"></polygon>
                    <polygon id="Fill-15" fill="#464646" mask="url(#mask-2)" points="1.16697553 33.1324471 6.23684209e-05 31.9111874 27.6298966 5.82542732 28.7955624 7.0460674"></polygon>
                    <polygon id="Fill-16" fill="#464646" mask="url(#mask-2)" points="0.895922368 8.93297869 2.36033289 8.93297869 2.36033289 13.2832904 4.16901711 13.2832904 4.16901711 8.93297869 5.63405132 8.93297869 5.63405132 19.0890759 4.16901711 19.0890759 4.16901711 14.5671311 2.36033289 14.5671311 2.36033289 19.0890759 0.895922368 19.0890759"></polygon>
                    <path d="M24.7847739,23.7416974 L24.7560845,23.7416974 L24.0382239,27.422206 L25.5026345,27.422206 L24.7847739,23.7416974 Z M24.1673266,20.8177377 L25.3878766,20.8177377 L27.6705608,30.9738349 L26.2061503,30.9738349 L25.7758082,28.7915535 L23.7800187,28.7915535 L23.3490529,30.9738349 L21.8846424,30.9738349 L24.1673266,20.8177377 Z" id="Fill-17" fill="#464646" mask="url(#mask-2)"></path>
                </g>
            </g>
        </g>
    </g>
</svg>